<svg id="Calque_1" data-name="Calque 1" xmlns="http://www.w3.org/2000/svg" viewBox="0 0 1000 1102"><defs><style>.cls-1{fill:#c08e31;}.cls-2,.cls-3{fill:#0f0e59;}.cls-3{font-size:35px;font-family:Lato-Bold, Lato;font-weight:700;letter-spacing:0.76em;}.cls-4{letter-spacing:0.8em;}</style></defs><title>Repavi alternatif</title><polygon class="cls-1" points="496.11 340.33 496.11 697.05 500.83 701.77 504.89 697.71 504.89 339.67 500.83 335.61 496.11 340.33"/><path class="cls-1" d="M680.45,385.87V336.15l.11.11V311.45l-87.28-87.27V133.52a11,11,0,0,0-3.22-8L508.3,43.81a11,11,0,0,0-15.6,0l-81.76,81.76a11,11,0,0,0-3.19,8.73v89.85l-87.31,87.31V386L187.73,518.69,500.5,831.46,813.27,518.69Zm-17.58-67.3v49.72l-150-150,24.86-24.86Zm-87.16-112-25.54-25.55,25.54-25.54ZM500.52,60.78l72.57,72.57-72.57,72.57-24.87-24.86h0l-12.4-12.41L428,133.35Zm-75.19,94.78,25.51,25.51-25.51,25.51ZM338,318.7,407.75,249v.31l17.58-17.57v-.32l37.91-37.91,24.86,24.86L338,368.4Zm-125.48,200,107.9-107.9v141L338,537.88V393.21l70.38-70.38V492.49L426,478.62V305.25l74.52-74.52,74.59,74.59V478.67l17.58,13.88V322.9l70.2,70.2V537.79l17.58,13.87v-141l108,108-288,288Z"/><path class="cls-2" d="M652.62,939.12v4.73c0,.95.07,2.29.22,4a24.53,24.53,0,0,0,.71,4.4,28.71,28.71,0,0,0,1.38,3.85,9.94,9.94,0,0,0,5.72,5.56H638.87v-9.13a43.62,43.62,0,0,1-15.07,6.87,72.49,72.49,0,0,1-18.48,2.37q-24,0-36.41-6.22T556,938.68a13,13,0,0,1,2.69-8.42,26.92,26.92,0,0,1,8.75-7.31q5.82-3.3,15.73-5.28a116.31,116.31,0,0,1,22.66-2,106.29,106.29,0,0,0,13.64-.77,41.21,41.21,0,0,0,9.07-2,15.52,15.52,0,0,0,4.95-2.86,3.85,3.85,0,0,0,1.43-3.46,8.6,8.6,0,0,0-1.59-3.74,14.49,14.49,0,0,0-4-3.63,40.68,40.68,0,0,0-5.94-3.19,48.08,48.08,0,0,0-7.2-2.48,54.81,54.81,0,0,0-8-1.48,64.06,64.06,0,0,0-10.73,0,45.75,45.75,0,0,0-9.84,1.87,37.16,37.16,0,0,0-8.14,3.52,19.11,19.11,0,0,0-5.67,5,11.17,11.17,0,0,0-2.36,6,12.84,12.84,0,0,1-7.32-1.1c-1.94-1-2.9-2.46-2.86-4.29s1.19-3.67,3.47-5.5q5.28-4.08,15.84-6.71a91.92,91.92,0,0,1,25-2.2q18.26.66,29.48,7t15.29,16.23a28.78,28.78,0,0,1,1.81,6.82,53.5,53.5,0,0,1,.66,6.49q.06,2.52,0,7.53C652.65,936,652.62,938.16,652.62,939.12Zm-14-12q.33-9.9-1.54-15.62c-.59,1.9-2.61,3.41-6.05,4.51A50.18,50.18,0,0,1,620,918.16q-5.94.5-14.63.61a74.33,74.33,0,0,0-16.89,2q-7,1.82-10.56,4.79A15.38,15.38,0,0,0,573,932a14.19,14.19,0,0,0-.6,7.37q1.53,8.79,10.12,13.75t22.55,5.39a50.7,50.7,0,0,0,13.69-1.27,27.62,27.62,0,0,0,9.52-4.12,19.83,19.83,0,0,0,5.88-6.88,32.7,32.7,0,0,0,3.19-8.69A70.4,70.4,0,0,0,638.65,927.13Z"/><path class="cls-2" d="M693.21,925.15q-2.43-4.74-7.15-13.86-4.95-9.79-7.7-13.31-6.06-7.82-12.87-9.35h17.16c1.83,0,4.56,0,8.19,0s6.4.06,8.31.06q-5.17,2.09-3.08,10a29,29,0,0,0,1.26,3.46c.55,1.29,1,2.29,1.32,3s.9,1.87,1.71,3.41,1.28,2.42,1.43,2.64l16.72,32.56,28.71-50.71q5.16-9.14,12.15-13a23.14,23.14,0,0,1,14.25-3q6.93,1,9.68,5.77a8.86,8.86,0,0,1,.33,9.19q-2.43,4.4-8.25,4.4a9.81,9.81,0,0,1-4.84-1,6.88,6.88,0,0,1-2.7-2.47l-1.65-2.86a6.24,6.24,0,0,0-2.31-2.31,6.11,6.11,0,0,0-3.79-.66q-6.39.66-11.77,10.23-27,47.63-36.3,64.24-3.42-6.49-9.74-18.76T693.21,925.15Zm89.87,15v4.45c0,.92.07,2.22.22,3.91a22,22,0,0,0,.71,4.23,26,26,0,0,0,1.38,3.63,10.43,10.43,0,0,0,2.31,3.3,8.86,8.86,0,0,0,3.41,2H761a7.39,7.39,0,0,0,3.08-1.6,12.81,12.81,0,0,0,2.14-2.36,11.67,11.67,0,0,0,1.43-3.3c.4-1.4.7-2.57.88-3.52a30.16,30.16,0,0,0,.39-3.91c.07-1.65.12-2.82.16-3.52s.06-1.81.06-3.35V924.82q0-2.21-.06-3.3c0-.74-.09-1.93-.16-3.58a29.78,29.78,0,0,0-.39-3.9c-.18-1-.48-2.13-.88-3.52a11.41,11.41,0,0,0-1.43-3.3,12.53,12.53,0,0,0-2.14-2.37,7.26,7.26,0,0,0-3.08-1.59h22.11v36.85Z"/><text class="cls-3" transform="translate(366.62 1033.1)">L<tspan class="cls-4" x="44.7" y="0">ODGES</tspan></text><path class="cls-2" d="M284.63,876.94a30,30,0,0,1,23.78,14,26.8,26.8,0,0,1,4,11.36c1.46,13.48-8.36,22.81-9.11,23.51a31.81,31.81,0,0,1-9.73,5.83c-9.51,4.12-17.64,3.7-17.61,4.42,0,.54,4.63.48,11.43,1.42a105.33,105.33,0,0,1,11.27,2.21c8.62,2.09,15,4.74,22.86,8,4.32,1.81,3.58,1.64,11.74,5.21,3.93,1.71,11.76,5.13,16.37,6.94,7,2.73,15.91,6.14,27.65,7.25,6.71.64,15.59,1.39,25.79-2.21a55.43,55.43,0,0,0,12.2-6.15,53.46,53.46,0,0,0,9.89-8.36c4.47-4.85,6.3-8.72,7.87-8.2,1.25.42,1.36,3.28,1.39,4.1.24,6.38-5.08,11.19-6.48,12.46-2.27,2.05-4.34,3-7.73,4.58A63.88,63.88,0,0,1,409,967.32a105.09,105.09,0,0,1-17.15,3,206.36,206.36,0,0,1-44.63-1c-7.76-1.18-22.6-3.53-38.46-10.41-2.7-1.17-11-4.89-20.85-9.31-12-5.38-12.4-5.59-14.36-6.31-14.34-5.21-25.42-5.48-25.33-6.62,0-.47,1.92-.55,11.12-1.58,5.88-.65,8.84-1,10.19-1.26,3.51-.71,9.26-1.87,14.83-6a28.7,28.7,0,0,0,9.88-12.62c.63-1.59,4.42-11.7-.46-21.77a21.72,21.72,0,0,0-7.57-9c-3.12-2-6.05-2.66-10.19-3.47a58,58,0,0,0-11.58-1.11c-7.43,0-15.63-.07-25.33-.15l.15,64.83a40.73,40.73,0,0,0,.93,6.94,18,18,0,0,0,1.7,5.2,13.7,13.7,0,0,0,4.32,4.73H218.68a15.39,15.39,0,0,0,4.17-5,18.88,18.88,0,0,0,1.7-5.68,28.9,28.9,0,0,0,.46-5.52c0-4.33.05-23.34.16-49.53a48.89,48.89,0,0,0-.62-6.94,24.72,24.72,0,0,0-1.7-6.63,19,19,0,0,0-3.59-5.39l63.36.19C283.06,876.92,283.77,876.9,284.63,876.94Z"/><path class="cls-2" d="M447.14,894.79a40.25,40.25,0,0,1,1.37,4.56,36,36,0,0,1,.72,5.5c.14,2.24.22,3.93.22,5.06v4.9a147.87,147.87,0,0,1,14-16.39v-9.79h-22a8.07,8.07,0,0,1,3.41,2.2A11.5,11.5,0,0,1,447.14,894.79Z"/><path class="cls-2" d="M544.71,920.53a27.2,27.2,0,0,0-7-16.34,41,41,0,0,0-15.73-11,64.22,64.22,0,0,0-20.29-4.45,63.37,63.37,0,0,0-10.95.27,57.4,57.4,0,0,0-9.13,1.76,32.57,32.57,0,0,0-8,3.63,72.49,72.49,0,0,0-6.87,4.73,56.14,56.14,0,0,0-6.6,6.38q-3.75,4.13-6.22,7.21t-6.54,8.47q-3.86,5.16-6.44,8.41t-6.54,7.65a77,77,0,0,1-7.15,7.09q-3.19,2.7-7.54,5.72a39.07,39.07,0,0,1-8.58,4.62,52.62,52.62,0,0,1-9.46,2.53,50.77,50.77,0,0,1-10.83.72,70,70,0,0,1-11.61-1.65,59.08,59.08,0,0,1-13.09-4.62q-6.54-3.2-8.74-7.26a4.49,4.49,0,0,1-.66-3q1.42-7,28.49-7.15,25.08-.12,37.84-8.8,9.78-6.72,8.58-15.84-1.22-8.7-11.88-14.63-16-8.91-42.57-5.5-18.6,2.41-29,9.13-9.13,5.94-12.87,14.24a25.89,25.89,0,0,0-1.76,16.89q3.18,14.85,19,23.43a74,74,0,0,0,38.17,9.13,75.48,75.48,0,0,0,9.84-1.05,47.17,47.17,0,0,0,8.8-2.42c2.28-.88,4.43-1.82,6.48-2.83a55.43,55.43,0,0,0,9.78-8.37c4.7-5.11,6.63-9.18,8.29-8.63.64.21,1,1,1.19,1.94.69-.75,1.38-1.52,2.09-2.35q3.36-3.9,6.05-7.2t6.22-8v37.78c0,1.06-.08,2.75-.22,5.06a35,35,0,0,1-.72,5.56,45.82,45.82,0,0,1-1.37,4.56,11.62,11.62,0,0,1-2.31,4,8.17,8.17,0,0,1-3.41,2.2h30.14a9.42,9.42,0,0,1-3.91-3.19,16.7,16.7,0,0,1-2.36-4.51,30.15,30.15,0,0,1-1.21-5.72q-.45-3.42-.55-5.67c-.08-1.5-.11-3.28-.11-5.33,1.54.51,3.22,1,5.06,1.43a91,91,0,0,0,40.53-.17A57.62,57.62,0,0,0,525.18,953a48.46,48.46,0,0,0,11.28-9.35,33.76,33.76,0,0,0,6.65-11.17A29.58,29.58,0,0,0,544.71,920.53ZM353.86,938.35A35.16,35.16,0,0,1,349,923.44a28.78,28.78,0,0,1,2.42-14.57,25.17,25.17,0,0,1,6.27-8.2,31.08,31.08,0,0,1,9-5.55,48,48,0,0,1,10.78-2.86A44,44,0,0,1,397,893.69q11.55,3.63,16.61,12.21,4.83,8.25.11,15.18-6.6,9.67-28.16,10.12a143,143,0,0,0-21.4,1.59Q356.28,934.17,353.86,938.35Zm174.57-15.62a36,36,0,0,1-4.29,14,42.52,42.52,0,0,1-9.57,11.88,41.19,41.19,0,0,1-14.8,8,50.66,50.66,0,0,1-19.19,2A34.41,34.41,0,0,1,463.42,953V906.34a47.67,47.67,0,0,1,17.71-12,46.88,46.88,0,0,1,21.12-2.2,36.43,36.43,0,0,1,7.42,1.37,34.81,34.81,0,0,1,6.6,2.75,23.7,23.7,0,0,1,9.74,10,24.12,24.12,0,0,1,2.31,7.42A34.26,34.26,0,0,1,528.43,922.73Z"/><polygon class="cls-2" points="585.33 604.45 585.33 564.51 571.93 551.11 571.93 614.8 619.66 614.8 619.66 604.45 585.33 604.45"/><path class="cls-2" d="M422.93,586.77a17.89,17.89,0,0,0,10.31-6.42,18.33,18.33,0,0,0,3.81-11.61q0-9.21-6.22-14.14t-17.66-4.93h-32v50.26l13.39,13.4v-24h15.72l14.84,24.29h15.08Zm-2.27-10.35c-1.94,1.69-4.78,2.54-8.54,2.54H394.59V560.07h17.17q11.81,0,11.81,9.22A9,9,0,0,1,420.66,576.42Z"/></svg>